<?xml version="1.0" encoding="iso-8859-1"?>
<!-- Generator: Adobe Illustrator 19.0.0, SVG Export Plug-In . SVG Version: 6.00 Build 0)  -->
<svg version="1.1" id="Layer_1" xmlns="http://www.w3.org/2000/svg" xmlns:xlink="http://www.w3.org/1999/xlink" x="0px" y="0px"
	 viewBox="0 0 512 512" style="enable-background:new 0 0 512 512;" xml:space="preserve">

<g>
	<path style="fill:#ffff00;" d="M129.775,41.29c0.498,70.88,3.409,245.405,19.319,420.514h72.395V134.911
		c10.628,4.422,22.281,6.874,34.51,6.874c12.229,0,23.882-2.452,34.51-6.874v326.893h72.395
		c15.911-175.108,18.822-349.634,19.319-420.514L256,19.269L129.775,41.29z"/>
	<path style="fill:#ffff00;" d="M257.232,41.29v56.332c15.634,0,28.309-12.674,28.309-28.309V41.29H257.232z"/>
</g>
<g>
	<path style="fill:#445E80;" d="M154.015,41.29c0.088,11.808,0.244,26.492,0.515,43.572c22.236-0.041,40.25-18.077,40.25-40.324
		V30.28L154.015,41.29z"/>
	<path style="fill:#445E80;" d="M357.986,41.29c-0.088,11.808-0.244,26.492-0.515,43.572c-22.237-0.041-40.251-18.077-40.251-40.324
		V30.28L357.986,41.29z"/>
</g>
<g>
	<path style="fill:#A0C9FF;" d="M290.51,503.742h68.328c1.442-13.948,2.796-27.945,4.066-41.938H290.51V503.742z"/>
	<path style="fill:#A0C9FF;" d="M153.162,503.742h68.328v-41.938h-72.395C150.366,475.797,151.718,489.794,153.162,503.742z"/>
	<path style="fill:#A0C9FF;" d="M382.308,8.258H129.693c0,0-0.066,11.924,0.083,33.032h252.45
		C382.373,20.182,382.308,8.258,382.308,8.258z"/>
</g>
<path style="fill:#445E80;" d="M247.742,141.393c2.721,0.249,5.472,0.392,8.258,0.392c2.786,0,5.537-0.143,8.258-0.392V8.258
	h-16.516V141.393z"/>
<path d="M390.566,41.29c0-0.393-0.037-0.776-0.09-1.155c0.143-19.937,0.092-31.392,0.09-31.922C390.541,3.67,386.851,0,382.308,0
	H129.693c-4.543,0-8.233,3.67-8.258,8.212c-0.003,0.531-0.053,11.985,0.09,31.922c-0.053,0.379-0.09,0.762-0.09,1.155
	c0,0.434,0.044,0.858,0.108,1.273c0.546,70.939,3.495,241.305,18.643,412.325c-2.257,1.474-3.751,4.018-3.751,6.915
	c0,3.43,2.092,6.371,5.069,7.618c1.089,11.744,2.235,23.477,3.444,35.168c0.435,4.209,3.983,7.409,8.214,7.409h68.328
	c4.561,0,8.258-3.697,8.258-8.258v-34.637c2.618-1.385,4.404-4.133,4.404-7.301c0-3.168-1.786-5.916-4.404-7.301V146.488
	c8.507,2.363,17.296,3.555,26.252,3.555c8.956,0,17.745-1.192,26.252-3.555v308.016c-2.618,1.385-4.404,4.133-4.404,7.301
	c0,3.168,1.786,5.916,4.404,7.301v34.635c0,4.561,3.697,8.258,8.258,8.258h68.328c4.231,0,7.779-3.199,8.214-7.409
	c1.209-11.691,2.356-23.425,3.444-35.168c2.977-1.247,5.069-4.188,5.069-7.618c0-2.897-1.494-5.441-3.751-6.915
	c15.149-171.02,18.096-341.387,18.643-412.325C390.522,42.148,390.566,41.724,390.566,41.29z M374.005,33.032H264.258V16.516H374.06
	C374.056,20.606,374.043,26.163,374.005,33.032z M264.258,49.548h13.025v19.765c0,8.582-5.429,15.9-13.025,18.756V49.548z
	 M247.742,16.516v16.516H137.996c-0.037-6.87-0.052-12.427-0.055-16.516H247.742z M160.618,495.484
	c-0.856-8.46-1.677-16.937-2.47-25.422h55.082v25.422H160.618z M224.663,127.288c-2.548-1.06-5.458-0.778-7.755,0.754
	c-2.297,1.532-3.675,4.109-3.675,6.87v318.635h-56.584c-14.627-165.034-17.846-329.532-18.53-403.998h48.011
	c-2.412,15.31-15.696,27.058-31.674,27.058c-4.561,0-8.258,3.697-8.258,8.258s3.697,8.258,8.258,8.258
	c25.098,0,45.81-19.13,48.326-43.574h44.96v83.564C239.801,132.315,232.067,130.368,224.663,127.288z M264.258,133.112v-27.917
	c16.812-3.286,29.541-18.123,29.541-35.882V49.548h15.421c2.515,24.444,23.228,43.574,48.326,43.574
	c4.561,0,8.258-3.697,8.258-8.258s-3.697-8.258-8.258-8.258c-15.978,0-29.261-11.747-31.674-27.058h48.011
	c-0.684,74.466-3.903,238.964-18.53,403.998h-56.584V134.911c0-2.76-1.379-5.338-3.675-6.87c-2.297-1.533-5.206-1.815-7.755-0.754
	C279.933,130.368,272.199,132.315,264.258,133.112z M298.768,495.484v-25.422h55.082c-0.792,8.485-1.614,16.962-2.47,25.422H298.768
	z"/>
<g>
</g>
<g>
</g>
<g>
</g>
<g>
</g>
<g>
</g>
<g>
</g>
<g>
</g>
<g>
</g>
<g>
</g>
<g>
</g>
<g>
</g>
<g>
</g>
<g>
</g>
<g>
</g>
<g>
</g>
</svg>
